<svg width="164" height="37" viewBox="0 0 164 37" fill="none" xmlns="http://www.w3.org/2000/svg">
<path d="M76.8889 4.11111V32.8889H48.1111V4.11111H76.8889ZM76.8889 0H48.1111C45.85 0 44 1.85 44 4.11111V32.8889C44 35.15 45.85 37 48.1111 37H76.8889C79.15 37 81 35.15 81 32.8889V4.11111C81 1.85 79.15 0 76.8889 0Z" fill="#C026D3"/>
<path d="M90.3098 35.6902C90.5128 36.0884 90.8047 36.4191 91.1562 36.649C91.5078 36.8789 91.9065 37 92.3124 37H124.688C125.093 37 125.492 36.8789 125.844 36.649C126.195 36.4191 126.487 36.0884 126.69 35.6902C126.893 35.2919 127 34.8402 127 34.3804C127 33.9206 126.893 33.4688 126.69 33.0706L110.503 1.30968C110.3 0.911484 110.008 0.580821 109.656 0.350926C109.305 0.12103 108.906 0 108.5 0C108.094 0 107.695 0.12103 107.344 0.350926C106.992 0.580821 106.7 0.911484 106.497 1.30968L90.3098 33.0706C90.1069 33.4688 90 33.9206 90 34.3804C90 34.8402 90.1069 35.292 90.3098 35.6902ZM108.5 7.85866L120.682 31.7608H96.3179L108.5 7.85866Z" fill="#2563EB"/>
<path d="M162.413 25.7631L162.414 25.7617C163.14 23.553 163.5 21.1206 163.5 18.469C163.5 14.9763 162.885 11.8723 161.64 9.16855C160.39 6.45385 158.51 4.32948 156.004 2.80797C153.51 1.25835 150.412 0.5 146.74 0.5C143.181 0.5 140.092 1.21712 137.493 2.67344C134.916 4.10931 132.93 6.18993 131.541 8.90137L131.54 8.90303C130.173 11.5943 129.5 14.7887 129.5 18.469C129.5 21.1423 129.872 23.5868 130.622 25.7973L130.622 25.7986C131.373 27.9876 132.466 29.8883 133.907 31.4935L133.907 31.4935L133.91 31.4965C135.376 33.1044 137.16 34.3454 139.255 35.2203L139.259 35.2219C141.361 36.0778 143.743 36.5 146.397 36.5C149.186 36.5 151.65 36.0682 153.776 35.1902C155.917 34.3158 157.715 33.0741 159.162 31.4625C160.603 29.8561 161.686 27.9538 162.413 25.7631ZM153.748 6.09773L153.752 6.09985C155.534 7.30183 156.841 8.95624 157.673 11.0805C158.514 13.2257 158.94 15.6857 158.94 18.469C158.94 21.334 158.491 23.843 157.608 26.0059C156.731 28.151 155.38 29.8057 153.554 30.9881C151.739 32.1629 149.388 32.7695 146.466 32.7695C143.615 32.7695 141.297 32.1642 139.481 30.9888C137.676 29.8054 136.324 28.1588 135.424 26.0314C134.52 23.8921 134.06 21.3751 134.06 18.469C134.06 13.955 135.147 10.4847 137.261 7.99575C139.379 5.52804 142.498 4.26152 146.705 4.26152C149.65 4.26152 151.984 4.88824 153.748 6.09773Z" fill="#0D9488" stroke="#0D9488"/>
<path d="M37 37H33.0417L18.5168 19.6389L3.79057 37H0L16.5041 17.7661L1.47597 0H5.40073L18.651 15.9186L32.0018 0H35.7924L20.6636 17.7408L37 37Z" fill="#EA580C"/>
</svg>
